<?xml version="1.0" standalone="no"?>
<!DOCTYPE svg PUBLIC "-//W3C//DTD SVG 20010904//EN"
 "http://www.w3.org/TR/2001/REC-SVG-20010904/DTD/svg10.dtd">
<svg version="1.0" xmlns="http://www.w3.org/2000/svg"
 width="1664.000000pt" height="1664.000000pt" viewBox="0 0 1664.000000 1664.000000"
 preserveAspectRatio="xMidYMid meet">
<metadata>
Created by potrace 1.14, written by Peter Selinger 2001-2017
</metadata>
<g transform="translate(0.000000,1664.000000) scale(0.100000,-0.100000)"
fill="#000000" stroke="none">
<path d="M5240 16629 c-191 -51 -330 -235 -324 -429 2 -72 10 -103 40 -170 26
-56 33 -66 99 -132 38 -39 135 -92 186 -104 148 -33 312 17 412 126 44 48 95
136 101 173 1 7 4 17 7 22 3 6 6 45 7 88 1 81 -25 186 -54 218 -8 8 -14 20
-14 25 0 5 -18 29 -41 53 -46 50 -136 106 -194 123 -52 14 -181 18 -225 7z"/>
<path d="M8908 16635 c-2 -2 -39 -6 -83 -10 -43 -3 -82 -8 -85 -10 -3 -2 -24
-6 -46 -9 -22 -4 -51 -9 -64 -12 -14 -3 -31 -6 -37 -6 -7 -1 -13 -5 -13 -10 0
-5 -4 -7 -8 -4 -9 6 -168 -38 -194 -54 -10 -5 -22 -10 -27 -10 -5 0 -26 -8
-47 -17 -47 -20 -44 -19 -71 -28 -13 -4 -23 -12 -23 -18 0 -6 -3 -7 -7 -4 -12
12 -322 -170 -331 -194 -2 -5 -8 -9 -14 -9 -5 0 -15 -6 -22 -12 -7 -7 -27 -24
-46 -38 -35 -27 -245 -233 -270 -265 -8 -11 -38 -49 -66 -85 -63 -81 -152
-225 -190 -308 l-29 -62 -75 6 c-41 3 -77 7 -79 9 -1 2 -14 0 -27 -5 -14 -6
-26 -6 -29 0 -3 5 -15 7 -28 4 -12 -2 -44 -7 -72 -10 -27 -3 -61 -8 -75 -11
-14 -3 -35 -7 -47 -9 -51 -6 -224 -73 -293 -112 -59 -33 -134 -85 -138 -94 -2
-5 -8 -8 -13 -8 -15 0 -197 -189 -204 -211 -4 -10 -10 -19 -14 -19 -5 0 -14
-13 -21 -30 -7 -16 -16 -30 -21 -30 -4 0 -11 -9 -14 -20 -6 -18 -12 -20 -48
-15 -23 4 -44 8 -47 10 -26 16 -285 24 -395 12 -129 -14 -280 -52 -375 -94
-53 -23 -73 -31 -80 -29 -3 0 -19 -9 -37 -22 -17 -12 -34 -22 -38 -22 -10 0
-161 -100 -210 -140 -49 -39 -116 -103 -171 -161 -49 -54 -144 -183 -144 -197
0 -6 -4 -12 -9 -14 -8 -3 -80 -140 -82 -155 0 -5 -5 -13 -10 -19 -8 -10 -43
-102 -55 -144 -19 -70 -44 -181 -51 -223 -14 -101 -7 -437 11 -466 2 -3 7 -22
10 -41 14 -89 86 -285 138 -372 15 -27 25 -48 22 -48 -3 0 1 -6 9 -14 7 -8 29
-38 48 -68 18 -29 41 -61 49 -70 8 -9 35 -41 59 -70 100 -119 271 -250 432
-330 155 -77 278 -115 469 -144 25 -4 839 -8 1809 -8 1582 -1 1764 0 1775 14
8 12 31 16 89 17 66 1 76 -1 66 -13 -14 -17 -19 -16 114 -18 91 -1 110 1 117
15 11 20 147 22 143 1 -4 -15 -8 -14 102 -16 98 -3 115 0 115 18 0 8 22 12 70
12 51 0 70 -4 70 -13 0 -16 -6 -15 123 -17 93 -1 108 1 104 14 -6 23 143 23
160 0 10 -14 45 -16 300 -14 353 2 484 21 676 99 128 51 300 150 350 200 9 8
18 15 22 15 3 0 42 35 87 78 239 229 389 519 435 844 10 65 9 338 0 393 -21
118 -23 127 -30 145 -3 8 -11 38 -18 65 -41 159 -169 391 -297 537 -79 90
-237 221 -337 281 -48 28 -199 101 -215 104 -8 1 -23 6 -35 11 -32 16 -78 31
-105 36 -14 2 -32 7 -40 10 -20 7 -64 16 -130 24 -58 8 -83 18 -76 31 3 4 -4
46 -15 92 -11 46 -21 91 -22 99 -4 21 -37 131 -47 155 -5 11 -24 56 -41 100
-18 44 -51 114 -73 155 -22 41 -44 85 -50 97 -6 13 -14 23 -18 23 -5 0 -8 5
-8 12 0 6 -11 26 -25 44 -14 18 -25 37 -25 42 0 6 -7 12 -15 16 -8 3 -15 10
-15 16 0 10 -2 13 -99 127 -92 108 -186 198 -295 282 -87 68 -246 171 -263
171 -7 0 -13 5 -13 10 0 6 -9 10 -20 10 -11 0 -20 5 -20 10 0 6 -4 10 -10 10
-5 0 -37 13 -72 29 -115 53 -259 102 -371 127 -47 11 -184 35 -227 40 -47 6
-367 13 -372 9z"/>
<path d="M6068 15866 c-88 -46 -128 -100 -135 -187 -16 -171 169 -284 319
-196 143 84 136 296 -14 373 -39 20 -139 26 -170 10z"/>
<path d="M8309 11456 c-2 -2 -20 -6 -39 -9 -19 -3 -55 -12 -80 -21 -25 -9 -50
-16 -56 -16 -18 0 -165 -85 -199 -115 -91 -79 -194 -203 -199 -242 -1 -7 -6
-16 -10 -20 -20 -20 -57 -138 -72 -228 -4 -22 -7 -911 -8 -1975 l-1 -1935
-205 0 c-285 -1 -340 13 -445 120 -48 48 -65 74 -84 130 l-25 69 -2 631 c-1
346 -5 642 -7 656 -9 48 -56 134 -96 176 -79 82 -185 123 -296 117 -62 -3
-167 -36 -173 -54 -2 -6 -10 -10 -18 -10 -21 0 -97 -83 -124 -137 -45 -91 -46
-112 -44 -798 1 -357 5 -661 8 -675 7 -31 19 -90 21 -110 3 -18 3 -20 45 -135
18 -49 41 -104 51 -122 11 -18 29 -50 40 -70 30 -53 114 -159 169 -213 50 -50
130 -120 135 -120 2 0 24 -13 47 -29 63 -43 193 -105 268 -129 125 -40 228
-55 387 -56 84 -1 153 -3 153 -7 0 -5 -98 -49 -103 -46 -1 1 -16 -8 -34 -21
-17 -12 -34 -22 -38 -22 -9 0 -191 -119 -225 -146 -13 -11 -31 -27 -42 -36
-10 -10 -20 -18 -23 -18 -15 0 -260 -241 -327 -321 -20 -24 -48 -57 -62 -74
-15 -16 -54 -66 -88 -110 -34 -44 -65 -81 -70 -83 -4 -2 -8 -10 -8 -17 0 -7
-4 -15 -8 -17 -18 -7 -151 -231 -228 -383 -72 -143 -132 -294 -150 -380 -16
-80 -22 -123 -19 -153 2 -17 -1 -35 -6 -38 -6 -3 -6 -12 0 -22 5 -9 5 -26 1
-38 -5 -12 -6 -25 -3 -28 4 -3 7 -34 8 -69 3 -82 13 -173 32 -277 8 -47 16
-100 19 -119 2 -18 7 -37 10 -43 3 -5 7 -19 9 -31 4 -33 40 -169 75 -282 17
-55 33 -107 35 -115 2 -8 11 -33 20 -55 10 -22 17 -42 17 -45 0 -5 4 -15 44
-120 73 -187 305 -636 335 -648 5 -2 9 -8 9 -13 0 -7 88 -144 112 -174 33 -40
45 -56 58 -75 21 -32 99 -129 132 -165 15 -16 51 -57 80 -89 121 -135 299
-305 464 -441 26 -22 58 -49 70 -60 12 -11 35 -29 50 -40 16 -11 35 -27 44
-35 9 -9 34 -29 55 -45 22 -16 45 -34 50 -39 6 -6 18 -15 26 -21 9 -5 52 -36
95 -68 96 -70 312 -217 320 -217 3 0 25 -13 49 -30 24 -16 48 -30 54 -30 6 0
11 -4 11 -8 0 -5 11 -14 24 -20 14 -6 42 -22 63 -35 21 -13 43 -25 48 -26 6
-1 17 -8 25 -15 8 -7 44 -29 80 -48 36 -20 81 -45 100 -57 19 -11 52 -28 73
-37 20 -9 37 -20 37 -25 0 -5 3 -8 8 -7 4 1 35 -12 69 -30 35 -18 66 -32 70
-33 5 0 15 -6 23 -13 8 -7 51 -31 95 -52 44 -21 82 -42 83 -46 2 -5 12 -8 23
-8 10 0 19 -4 19 -10 0 -5 4 -10 10 -10 5 0 45 -16 87 -36 184 -86 284 -127
291 -120 5 5 -38 69 -50 74 -4 2 -8 10 -8 18 0 8 -7 17 -15 20 -8 4 -13 10
-10 14 3 5 1 12 -5 15 -9 5 -127 242 -161 320 -53 124 -123 323 -133 378 -2
15 -7 35 -10 45 -3 9 -8 33 -10 52 -3 19 -8 51 -11 70 -23 158 -18 491 10 620
3 14 7 39 10 56 18 136 98 347 205 539 48 87 133 215 142 215 4 0 8 5 8 11 0
10 33 55 113 153 18 21 106 114 197 207 91 92 185 189 210 216 43 46 200 248
200 257 0 3 17 31 38 63 21 32 47 74 58 93 10 19 24 42 31 50 6 8 12 18 13 22
0 4 16 40 34 80 66 143 74 164 106 263 17 55 33 108 35 118 3 10 6 26 9 35 5
17 10 40 21 116 4 21 9 48 11 60 2 11 4 73 4 136 1 100 -3 155 -14 235 -8 52
-67 239 -91 284 -8 17 -13 31 -10 31 5 0 -61 128 -98 190 -41 67 -126 176
-189 240 -87 89 -177 170 -188 170 -6 0 -10 4 -10 9 0 6 -48 49 -107 98 -60
48 -113 92 -120 98 -102 85 -306 224 -388 265 -27 14 -51 28 -53 33 -2 4 -8 7
-13 7 -6 0 -29 9 -51 20 -23 11 -48 20 -55 20 -14 0 -14 13 -13 474 0 110 2
202 5 205 4 3 110 6 238 7 203 1 294 6 360 20 71 16 112 27 122 33 6 3 19 7
29 8 11 2 25 8 33 14 7 6 13 9 13 5 0 -9 194 94 198 105 2 5 8 9 14 9 18 0
163 121 207 174 9 10 23 26 32 35 52 53 148 214 192 323 23 56 54 175 66 257
11 72 17 909 7 976 -12 79 -60 169 -118 221 -34 31 -128 88 -128 78 0 -2 -8 0
-18 5 -58 31 -220 14 -301 -32 -73 -41 -166 -160 -175 -224 -1 -7 -5 -15 -8
-19 -4 -3 -7 -203 -8 -443 0 -240 -3 -452 -6 -471 -7 -51 -62 -159 -99 -196
-43 -43 -100 -78 -161 -99 -40 -15 -88 -18 -268 -19 -144 -1 -220 2 -222 9 -3
6 -6 714 -8 1575 -2 861 -4 1572 -6 1580 -1 8 -9 40 -17 70 -8 30 -16 60 -17
65 -5 22 -80 165 -88 165 -4 0 -8 6 -8 14 0 15 -165 186 -180 186 -5 0 -15 6
-22 13 -7 7 -44 28 -83 46 -38 18 -78 37 -87 42 -10 5 -27 9 -39 9 -11 0 -30
5 -41 11 -20 11 -259 24 -269 15z"/>
</g>
</svg>
